# xmcd
#
# Track frame offsets:
#	150
#	25610
#	53346
#	67602
#	82836
#	106060
#	140469
#	162010
#	179636
#	207931
#	227982
#	252322
#	278759
#
# Disc length: 3939
#
# Revision: 1
# Processed by: cddbd v1.5.1PL0 Copyright (c) Steve Scherf et al.
# Submitted via: CDex 1.51
# Normalized: r0:TDELIM( - )
#
DISCID=9d0f610d
DTITLE=Collection - The Best Of Blues vol.2
DYEAR=2003
DGENRE=Blues
TTITLE0=The Mighty Houserockers - Play The Blues For You
TTITLE1=Stavie Ray Vaughan - Ain't Gone 'N' Give Up On Love
TTITLE2=Taj Mahal - Blues Ain't Nothing
TTITLE3=Buddy Guy And Junior Wells - Hoodoo Man Blues
TTITLE4=Magic Slim - Born In Missouri
TTITLE5=Buddy Guy - Black Night
TTITLE6=Lucky Peterson - Who's Been Talking?
TTITLE7=Dr. John - Ac-Cent-tchu-ate The Positive
TTITLE8=Billy Boy Arnold and Tony McPhee - Blue And Lonesome
TTITLE9=Buddy Guy - Damn Right, I've Got The Blues
TTITLE10=Taj Mahal - Oh, Susanna
TTITLE11=Buddy Guy - Five Long Years
TTITLE12=Billy Boy Arnold - Back Door Friend
EXTD=YEAR: 2003
EXTT0=
EXTT1=
EXTT2=
EXTT3=
EXTT4=
EXTT5=
EXTT6=
EXTT7=
EXTT8=
EXTT9=
EXTT10=
EXTT11=
EXTT12=
PLAYORDER=
